<svg xmlns="http://www.w3.org/2000/svg"  viewBox="0 0 512 512" width="48px" height="48px"><path fill="#D6E5E5" d="M371.6,179c-31.2-14-65.4-13.8-98.3-6.2c-19.5,4.5-39.2,10.2-58,17.7c-0.2-0.2-0.3-0.4-0.5-0.7c-1.8,0.4-3.8-0.3-5.1-2.4c-5.3-9-14-17.8-16.3-28.3c-12.2,1.7-25.6-4-37.6-5.3c-6.5-0.7-12.9-1.8-19.3-3.3c1.6,2.4,3.2,4.7,4.6,7c4.3,7,8.8,14,13,21c3.7,6.2,7.6,12.4,11.2,18.8c2.1,3.8,4.8,7.8,5.4,12.2c0.2,1.7-0.2,3-1,3.9c0.3,0.3,0.5,0.6,0.7,0.9c-12.4,9.2-23.2,20.2-31.5,33.6c-27.6,44.2-28.5,99.7-3.3,145.1c3.5-2.7,8.5-4.7,12.5-6.4c6.2-2.6,12.5-4.7,18.6-7.6c12.7-6.1,25-13.7,37.1-21c25-15,50.3-29.5,76.2-42.8c0.5-0.3,1-0.5,1.5-0.8c0,0,0,0,0-0.1c-0.9-1.9-1.4-4-2.2-6.3c-1.6-4.2-3.6-8.2-5.9-12.1c-5-8.4-11-16.3-15.3-25c-4.4-8.9-8.7-18-14.2-26.3c-4.3-6.6-9.4-13.2-11.8-20.7c-1.5-4.7,3.1-7.9,6.7-7.1c0.8-0.3,1.6-0.7,2.4-1c13.6-5.7,28.2-9.8,42.9-10.9c13.9-1,28.2-0.3,42.2,0.9c17.9,1.4,42.1,7.5,47.2,27.5c0.9,3.5-1.4,6.2-4.1,7c-2.9,4.5-9.9,6.8-14.6,8.5c-7.6,2.7-15.3,4.7-22.9,7.3c-0.4-0.6-0.8-1.2-1.2-1.7c-0.1-0.2-0.2-0.3-0.3-0.5c-1-1.3-2-2.6-3-3.9c-4.4-4.2-9.3-7.9-11.5-13.1c-13.7,0.9-27.5,1.5-41.2,1.7c1.4,1.5,2.8,3,4.2,4.4c4.8,4.8,8.1,11.2,11.9,16.8c8.4,12.4,15.3,25.7,23.6,38.1c14.7-7.3,29.4-14.6,44-22.1c25.5-13.1,51.6-26.3,75.6-42.1C418.2,210.7,397.4,190.6,371.6,179z M219.3,307.9c-8.8,4.4-17.8,8.5-26.7,12.8c-4.5,2.1-9,4.2-13.5,6.4c-2.1,1-4.2,2.1-6.3,3.1c-0.9,0.4-1.8,0.9-2.7,1.4c-0.1,0.1-0.2,0.1-0.2,0.2c-0.3,2.1-2,3.4-4,3.7c-3,2.3-8.7,1.3-9.1-3.7c0-0.5-0.1-1-0.1-1.5c-1.2-13.4-4.3-27.1-2.5-40.6c1.6-12.2,9-23.4,17.3-32.1c3.7-3.8,7.6-7.3,11.7-10.6c0.2-0.4,0.5-0.8,0.9-1.2c4.2-3.9,10.4,0.1,9.8,4.4c0.2,0.4,0.3,0.8,0.5,1.2c0.8,1.6,1.8,3.2,2.7,4.8c2.3,3.9,4.6,7.7,7,11.5c6,9.7,11,19.8,16.6,29.7c1.3,2.3,0.8,4.6-0.4,6.3c0,0,0,0,0,0.1c0.5,1,1.1,2,1.7,2.9C221.2,307,220.2,307.4,219.3,307.9z"/><path fill="#CBDB2D" d="M192.4,269.4c-2.2-3.5-4.3-7.1-6.3-10.7c-2.6,2.3-5.1,4.7-7.4,7.2c-7.2,8.1-13.8,17.8-14,29c-0.2,8.6,1,17.2,2,25.7c3.2-1.6,6.6-2.8,8.7-3.9c8.9-4.3,17.9-8.4,26.8-12.6c2.6-1.2,5.2-2.5,7.9-3.7C204.2,290,198.7,279.5,192.4,269.4z"/><path fill="#CBDB2D" d="M478.7,224.2c-3.5-26.2-10.3-52.8-24.1-75.7C410,75,312.1,48.5,231.1,57.1c-50.2,5.3-99.2,25.3-136.9,59.4c-20.1,18.2-36.8,39.4-47.3,64.6c-10.5,25.3-14.7,52.6-16,79.8c-0.1,1.2-0.4,2.2-1,3c0.3,33,7.8,65.5,20.9,95.9c12.6,29.3,30.3,57.2,53.7,79.2c15.9,15,34.3,27.4,54.9,35c25.3,9.3,53.3,10.5,79.9,9.2c31.1-1.4,61.9-6.5,92.3-13c24.8-5.3,49.8-12.5,72.2-24.7c22.9-12.5,43.2-29.9,55.8-53.2c13.3-24.8,19.3-52.5,21.3-80.3C483.1,282.9,482.5,253,478.7,224.2z M442.7,238c0.2,1.7-0.4,3.6-2.4,4.8c-24.5,16.2-51.3,29.7-77.5,43.1c-16.1,8.2-32.3,16.2-48.4,24.3c-0.3-0.7-0.7-1.4-1-2c-2.2,1-4.9,0.8-6.7-1.8c-5.5-8-10.2-16.6-15.1-25c-4.9-8.3-10.4-16.2-15.9-24.2c-3.6-5.2-8-9.4-11.9-14.3c-2.8-3.6-6-9.9-0.6-13.1c0.3-0.2,0.7-0.3,1-0.5c0.8-0.9,2-1.5,3.6-1.5c17.3,0,34.7-0.9,52-2c3.9-0.3,6.1,3,5.8,6.5c-0.2,3.3,7.1,7.8,9.2,9.8c0.5,0.4,0.8,0.9,1.1,1.4c1.5-0.5,2.9-1,4.4-1.4c6.1-1.9,12.5-3.5,18.1-6.8c0.3-0.9,0.9-1.8,1.7-2.6c0.3-0.2,0.6-0.4,0.9-0.6c-7.4-13.1-28.5-14.9-41.9-15.6c-13.1-0.7-26.3-1.6-39.3,0.1c-12,1.6-23.7,5.1-34.9,9.7c3.1,5.9,7.6,11.2,10.8,16.9c5.7,10,10.3,20.6,16.4,30.3c5.8,9.1,12.1,18.1,16.3,28.1c1,2.4,2,4.8,2.6,7.3c-1.1-0.8-1.3-0.8-0.5-0.1c0.4,0.4,0.8,0.9,1.2,1.3c2.2,3.2,0.7,7.9-1.4,10.7c-0.4,0.5-0.8,0.9-1.2,1.2c0.1,0.2,0.3,0.4,0.4,0.6c-1.7,0.9-3.4,1.7-5.1,2.6c-25.9,13.4-51.1,27.9-76.2,42.9c-11.9,7.1-24,14.5-36.5,20.6c-6,2.9-12.3,5.1-18.5,7.7c-3.1,1.3-6.8,2.7-9.8,4.5c-1.1,1.6-2.9,2.8-5.3,2.7c-1.2-0.1-2.1-0.4-3-1c-2.3,1.7-5.7,1.9-7.5-1.3c-18-31.2-25.6-68.2-19.4-103.9c6-34.2,23.7-67,51-88.7c-1.2-3.3-4.6-7.8-6.3-10.8c-4-6.7-7.9-13.4-12-20c-3.9-6.3-7.8-12.6-11.7-18.9c-3.1-5-6.7-9.8-8.6-15.4c-0.3-0.8-0.3-1.5-0.3-2.1c-1.1-5,6.4-9.2,10.1-4.1c-1-1.4,0.8,0.2,1.9,0.6c1,0.3,2,0.6,3,0.8c2.1,0.5,4.1,0.9,6.2,1.4c6.6,1.3,13.1,2.1,19.8,3.1c5.8,0.8,11.5,2.2,17.3,3.4c4.3,0.8,9.7,2.4,14.1,1.4c1.9-0.5,3.5,0,4.8,0.9c2.9-0.4,6,1.1,6.2,4.8c0.4,8.9,8,16.9,13.2,24.4c4.2-1.5,8.5-3,12.8-4.4c27.3-8.9,55.8-17.1,84.8-17.4c27.4-0.3,54.6,6.5,77.9,21.2c21.3,13.5,38.7,31.6,52.5,52.6C447,233.4,445.3,236.6,442.7,238z"/><path d="M492.3,254c-1.4-29.7-5.7-59.7-16.7-87.4c-7.8-19.8-19.5-37.6-34.1-53c-29.3-31.1-69.8-50.2-110.8-60.3c-41.5-10.3-85.6-11.3-127.5-2.8c-48.6,9.9-93.9,34.2-128.6,69.7c-18.2,18.7-32.2,40.7-41.1,65.2c-8.7,23.8-12.2,48.9-13.5,74.1c-0.7,0.9-1.1,2.1-1.1,3.5c0,46.5,14.2,92.4,37.5,132.4c22.2,38.1,55.2,72,96.9,88.1c24.6,9.5,51.4,11.5,77.6,11.1c31-0.4,61.9-5.3,92.3-11.4c50-10,101.7-26.4,134.6-68C492.9,370.7,494.8,308,492.3,254z M480.9,312c-2.1,27.9-8,55.6-21.3,80.3c-12.5,23.2-32.8,40.6-55.8,53.2c-22.4,12.2-47.4,19.4-72.2,24.7c-30.4,6.5-61.2,11.6-92.3,13c-26.7,1.2-54.6,0-79.9-9.2c-20.6-7.6-39-20-54.9-35c-23.4-22-41.1-49.8-53.7-79.2C37.8,329.5,30.2,297,29.9,264c0.6-0.8,0.9-1.8,1-3c1.3-27.2,5.6-54.5,16-79.8c10.4-25.2,27.2-46.4,47.3-64.6c37.6-34.1,86.6-54,136.9-59.4c81.1-8.6,179,17.9,223.5,91.4c13.8,22.8,20.6,49.4,24.1,75.7C482.5,253,483.1,282.9,480.9,312z"/><path d="M444.9,230.2c-13.9-20.9-31.2-39.1-52.5-52.6c-23.3-14.7-50.5-21.5-77.9-21.2c-29,0.3-57.4,8.6-84.8,17.4c-4.3,1.4-8.5,2.9-12.8,4.4c-5.1-7.5-12.7-15.5-13.2-24.4c-0.2-3.7-3.3-5.3-6.2-4.8c-1.3-0.9-2.9-1.4-4.8-0.9c-4.4,1.1-9.8-0.5-14.1-1.4c-5.8-1.1-11.5-2.6-17.3-3.4c-6.7-0.9-13.2-1.8-19.8-3.1c-2.1-0.4-4.2-0.9-6.2-1.4c-1-0.2-2-0.5-3-0.8c-1.1-0.4-2.9-2-1.9-0.6c-3.6-5.1-11.1-0.9-10.1,4.1c0,0.7,0,1.4,0.3,2.1c1.9,5.6,5.5,10.4,8.6,15.4c3.9,6.3,7.8,12.6,11.7,18.9c4.1,6.6,8,13.3,12,20c1.8,2.9,5.1,7.4,6.3,10.8c-27.4,21.7-45.1,54.5-51,88.7c-6.3,35.7,1.3,72.6,19.4,103.9c1.9,3.2,5.2,3.1,7.5,1.3c0.9,0.6,1.8,0.9,3,1c2.4,0.2,4.3-1,5.3-2.7c3-1.9,6.7-3.2,9.8-4.5c6.2-2.6,12.5-4.8,18.5-7.7c12.5-6,24.6-13.4,36.5-20.6c25.1-15,50.2-29.5,76.2-42.9c1.7-0.9,3.4-1.8,5.1-2.6c-0.1-0.2-0.3-0.4-0.4-0.6c0.4-0.3,0.8-0.7,1.2-1.2c2.1-2.8,3.6-7.5,1.4-10.7c-0.4-0.5-0.8-0.9-1.2-1.3c-0.8-0.7-0.6-0.7,0.5,0.1c-0.6-2.5-1.6-5-2.6-7.3c-4.2-10-10.5-19-16.3-28.1c-6.2-9.7-10.8-20.3-16.4-30.3c-3.3-5.7-7.7-11-10.8-16.9c11.2-4.7,22.8-8.2,34.9-9.7c13-1.7,26.2-0.8,39.3-0.1c13.4,0.7,34.5,2.5,41.9,15.6c-0.3,0.2-0.6,0.4-0.9,0.6c-0.9,0.8-1.4,1.7-1.7,2.6c-5.5,3.3-12,4.9-18.1,6.8c-1.5,0.5-3,0.9-4.4,1.4c-0.3-0.5-0.6-0.9-1.1-1.4c-2.1-2-9.5-6.5-9.2-9.8c0.2-3.5-1.9-6.8-5.8-6.5c-17.3,1.1-34.7,2-52,2c-1.6,0-2.8,0.6-3.6,1.5c-0.3,0.1-0.7,0.3-1,0.5c-5.4,3.1-2.2,9.5,0.6,13.1c3.9,5,8.3,9.1,11.9,14.3c5.4,8,11,15.9,15.9,24.2c5,8.4,9.6,17,15.1,25c1.8,2.6,4.5,2.8,6.7,1.8c0.3,0.7,0.7,1.4,1,2c16.2-8,32.4-16,48.4-24.3c26.2-13.4,52.9-26.9,77.5-43.1c1.9-1.3,2.6-3.1,2.4-4.8C445.3,236.6,447,233.4,444.9,230.2z M358.5,276c-14.6,7.5-29.3,14.8-44,22.1c-8.3-12.4-15.2-25.7-23.6-38.1c-3.8-5.6-7.1-12-11.9-16.8c-1.4-1.4-2.9-2.9-4.2-4.4c13.8-0.2,27.5-0.8,41.2-1.7c2.1,5.2,7,8.9,11.5,13.1c1,1.3,2,2.6,3,3.9c0.1,0.2,0.2,0.3,0.3,0.5c0.4,0.6,0.8,1.2,1.2,1.7c7.6-2.6,15.4-4.6,22.9-7.3c4.7-1.7,11.7-4,14.6-8.5c2.7-0.9,5-3.5,4.1-7c-5-20.1-29.3-26.1-47.2-27.5c-13.9-1.1-28.2-1.9-42.2-0.9c-14.8,1.1-29.3,5.2-42.9,10.9c-0.8,0.3-1.6,0.7-2.4,1c-3.7-0.8-8.3,2.4-6.7,7.1c2.4,7.6,7.5,14.2,11.8,20.7c5.5,8.3,9.7,17.4,14.2,26.3c4.4,8.7,10.4,16.6,15.3,25c2.3,3.9,4.3,7.9,5.9,12.1c0.9,2.3,1.3,4.3,2.2,6.3c0,0,0,0,0,0.1c-0.5,0.3-1,0.5-1.5,0.8c-26,13.3-51.2,27.8-76.2,42.8c-12.1,7.3-24.3,14.8-37.1,21c-6,2.9-12.4,5-18.6,7.6c-4,1.7-9,3.6-12.5,6.4c-25.2-45.4-24.3-100.9,3.3-145.1c8.3-13.4,19.1-24.5,31.5-33.6c-0.3-0.3-0.5-0.6-0.7-0.9c0.8-0.9,1.3-2.3,1-3.9c-0.6-4.4-3.3-8.5-5.4-12.2c-3.6-6.3-7.5-12.5-11.2-18.8c-4.2-7.1-8.7-14-13-21c-1.4-2.3-3.1-4.6-4.6-7c6.4,1.4,12.8,2.5,19.3,3.3c12,1.3,25.3,7,37.6,5.3c2.4,10.5,11,19.4,16.3,28.3c1.3,2.2,3.2,2.8,5.1,2.4c0.2,0.2,0.3,0.4,0.5,0.7c18.8-7.4,38.5-13.1,58-17.7c32.9-7.7,67-7.9,98.3,6.2c25.9,11.6,46.6,31.7,62.5,54.9C410.1,249.7,384,262.9,358.5,276z"/><path d="M220.5,303.5C220.5,303.5,220.4,303.5,220.5,303.5c1.2-1.7,1.7-4,0.4-6.3c-5.6-9.9-10.6-20-16.6-29.7c-2.4-3.8-4.7-7.6-7-11.5c-0.9-1.6-1.9-3.2-2.7-4.8c-0.2-0.4-0.4-0.8-0.5-1.2c0.6-4.3-5.7-8.3-9.8-4.4c-0.4,0.4-0.7,0.8-0.9,1.2c-4.1,3.2-8.1,6.8-11.7,10.6c-8.4,8.7-15.7,20-17.3,32.1c-1.8,13.5,1.3,27.2,2.5,40.6c0,0.5,0.1,1,0.1,1.5c0.4,5,6,6,9.1,3.7c2-0.3,3.6-1.6,4-3.7c0.1-0.1,0.1-0.1,0.2-0.2c0.9-0.5,1.8-0.9,2.7-1.4c2.1-1,4.2-2.1,6.3-3.1c4.5-2.2,9-4.3,13.5-6.4c8.9-4.2,17.9-8.4,26.7-12.8c1-0.5,1.9-1,2.9-1.4C221.6,305.5,221,304.5,220.5,303.5z M202.2,304.1c-8.9,4.2-17.9,8.4-26.8,12.6c-2.1,1-5.5,2.2-8.7,3.9c-1-8.6-2.2-17.1-2-25.7c0.2-11.2,6.8-20.9,14-29c2.3-2.6,4.8-5,7.4-7.2c2,3.6,4.1,7.2,6.3,10.7c6.2,10.2,11.8,20.6,17.6,31C207.4,301.6,204.8,302.9,202.2,304.1z"/></svg>